<svg width="17" height="17" viewBox="0 0 17 17" fill="none" xmlns="http://www.w3.org/2000/svg">
<g clip-path="url(#clip0)">
<path d="M16.9946 2.80545C16.9927 2.78622 16.9889 2.76727 16.9833 2.74878C16.9776 2.73047 16.97 2.7128 16.9606 2.69608C16.9561 2.68815 16.9552 2.6788 16.9499 2.67115C16.9445 2.6635 16.9377 2.66038 16.9323 2.65387C16.9196 2.63896 16.9055 2.62539 16.8901 2.61335C16.8766 2.60258 16.8622 2.59309 16.847 2.58502C16.8312 2.57687 16.8146 2.57032 16.7974 2.56547C16.7789 2.55998 16.7599 2.55619 16.7407 2.55413C16.7323 2.55413 16.7249 2.54932 16.7161 2.54932H0.283333C0.274763 2.55059 0.266227 2.55229 0.257833 2.55442C0.239381 2.55626 0.221142 2.55998 0.203433 2.56547C0.185867 2.57046 0.16876 2.57712 0.152433 2.5853C0.137523 2.59345 0.123427 2.60294 0.110217 2.61363C0.0946333 2.62567 0.0803958 2.63935 0.0677167 2.65443C0.0623333 2.66095 0.0549667 2.66463 0.05015 2.67172C0.0453333 2.6788 0.0439167 2.68872 0.0393833 2.69665C0.0299979 2.71337 0.0223833 2.73104 0.0167167 2.74935C0.0110854 2.76784 0.00729583 2.78679 0.00538333 2.80602C0.00538333 2.81537 0 2.82358 0 2.83435V14.1671C0 14.3236 0.126862 14.4504 0.283333 14.4504H16.7167C16.8731 14.4504 17 14.3236 17 14.1671V2.83378C17 2.82415 16.9955 2.81593 16.9946 2.80545ZM15.8066 3.11712L8.5 8.1562L1.1934 3.11712H15.8066ZM16.4333 13.8838H0.566667V3.37353L8.33907 8.73363C8.43593 8.8005 8.56407 8.8005 8.66093 8.73363L16.4333 3.37353V13.8838Z" fill="#005FA3"/>
</g>
<defs>
<clipPath id="clip0">
<rect width="17" height="17" fill="white"/>
</clipPath>
</defs>
</svg>
