<svg width="13" height="17" viewBox="0 0 13 17" fill="none" xmlns="http://www.w3.org/2000/svg">
<path d="M6.4882 0C3.05271 0 0.257812 2.7949 0.257812 6.23038C0.257812 7.80857 1.25222 10.0384 3.21354 12.8579C4.64711 14.919 6.05708 16.5139 6.11648 16.5808L6.4882 17L6.86005 16.5808C6.91932 16.5139 8.32928 14.919 9.76299 12.8579C11.7242 10.0384 12.7187 7.80857 12.7187 6.23038C12.7187 2.7949 9.92368 0 6.4882 0ZM8.95249 12.2823C7.98351 13.6763 7.00414 14.876 6.4882 15.4881C5.97355 14.8777 4.99782 13.6825 4.02948 12.2903C2.21226 9.67793 1.2517 7.58237 1.2517 6.23038C1.2517 3.34301 3.60082 0.993889 6.4882 0.993889C9.3757 0.993889 11.7247 3.34301 11.7247 6.23038C11.7247 7.58095 10.7661 9.67365 8.95249 12.2823Z" fill="white"/>
<path d="M6.48821 2.30273C4.46062 2.30273 2.8111 3.95226 2.8111 5.97985C2.8111 8.00745 4.46062 9.6571 6.48821 9.6571C8.51594 9.6571 10.1655 8.00745 10.1655 5.97985C10.1655 3.95226 8.51594 2.30273 6.48821 2.30273ZM6.48821 8.66321C5.00873 8.66321 3.80499 7.45947 3.80499 5.97985C3.80499 4.50037 5.00873 3.29662 6.48821 3.29662C7.96783 3.29662 9.17157 4.50037 9.17157 5.97985C9.17157 7.45947 7.96783 8.66321 6.48821 8.66321Z" fill="white"/>
</svg>
